<?xml version="1.0" encoding="UTF-8"?>
<svg width="16px" height="16px" viewBox="0 0 16 16" version="1.1" xmlns="http://www.w3.org/2000/svg" xmlns:xlink="http://www.w3.org/1999/xlink">
    <!-- Generator: Sketch 52 (66869) - http://www.bohemiancoding.com/sketch -->
    <title>关闭</title>
    <desc>Created with Sketch.</desc>
    <defs>
        <polygon id="path-1" points="0.00150234742 0.00300469484 15.9969703 0.00300469484 15.9969703 15.9999812 0.00150234742 15.9999812"></polygon>
    </defs>
    <g id="关闭" stroke="none" stroke-width="1" fill="none" fill-rule="evenodd">
        <g id="cha-3">
            <g id="分组">
                <mask id="mask-2" fill="white">
                    <use xlink:href="#path-1"></use>
                </mask>
                <g id="Clip-2"></g>
                <path d="M0,8.00152739 C0,10.8591174 1.52455712,13.4995931 3.99922379,14.9283756 C6.47399061,16.3571831 9.52297966,16.3571831 11.9977465,14.9283756 C14.4725133,13.4995931 15.9969703,10.8591174 15.9969703,8.00152739 C15.9969703,3.58410016 12.415975,0.00300469484 7.99852269,0.00300469484 C3.58109546,0.00300469484 0,3.58410016 0,8.00152739 Z" id="Fill-1" fill="#CCCCCC" mask="url(#mask-2)"></path>
            </g>
            <path d="M8.91793427,8.00956495 L11.8565258,5.07087324 C12.0788232,4.8485759 12.0788232,4.48598435 11.8565258,4.26366197 C11.6342034,4.04133959 11.2716119,4.04133959 11.0492895,4.26366197 L8.110723,7.20225352 L5.17205634,4.26160876 C4.94973396,4.03928638 4.58714241,4.03928638 4.36482003,4.26160876 C4.14249765,4.4840313 4.14249765,4.84659781 4.36482003,5.06892019 L7.30341158,8.00751174 L4.36482003,10.9481315 C4.14249765,11.1704538 4.14249765,11.5330203 4.36482003,11.7553427 C4.47702034,11.867543 4.62324883,11.9216275 4.76945227,11.9216275 C4.91568075,11.9216275 5.06190923,11.86559 5.17410955,11.7553427 L8.11267606,8.81677621 L11.0512426,11.7553427 C11.1634429,11.867543 11.3096714,11.9216275 11.4558998,11.9216275 C11.6021033,11.9216275 11.7483318,11.86559 11.8605321,11.7553427 C12.0828545,11.5330203 12.0828545,11.1704538 11.8605321,10.9481315 L8.91793427,8.00956495 Z" id="Fill-3" fill="#FFFFFF"></path>
        </g>
    </g>
</svg>