<?xml version="1.0" standalone="no"?><!DOCTYPE svg PUBLIC "-//W3C//DTD SVG 1.1//EN" "http://www.w3.org/Graphics/SVG/1.1/DTD/svg11.dtd"><svg t="1594648802546" class="icon" viewBox="0 0 1024 1024" version="1.1" xmlns="http://www.w3.org/2000/svg" p-id="1336" xmlns:xlink="http://www.w3.org/1999/xlink" width="48" height="48"><defs><style type="text/css"></style></defs><path d="M0 512.512C0 794.9824 229.2224 1024 512 1024c282.7264 0 511.8976-229.0176 511.8976-511.488 0-282.5216-229.1712-511.488-511.9488-511.488C229.2224 1.024 0 229.9904 0 512.512z" fill="#2c2c2c" p-id="1337" data-spm-anchor-id="a313x.7781069.0.i0" class="selected"></path><path d="M792.9856 233.8816a39.7312 39.7312 0 0 1 0 55.808L278.8864 791.1936a42.24 42.24 0 0 1-57.1392 0 39.7312 39.7312 0 0 1 0-55.808l514.048-501.5552a42.24 42.24 0 0 1 57.1904 0z" fill="#e6e6e6" p-id="1338" data-spm-anchor-id="a313x.7781069.0.i1" class=""></path><path d="M230.912 241.6128a40.96 40.96 0 0 1 55.5008 0l498.7904 486.3488a38.5536 38.5536 0 0 1 0 54.0672 40.96 40.96 0 0 1-55.4496 0l-498.7904-486.4a38.5024 38.5024 0 0 1 0-54.016z" fill="#e6e6e6" p-id="1339" data-spm-anchor-id="a313x.7781069.0.i2" class=""></path></svg>