<?xml version="1.0" encoding="UTF-8"?>
<svg width="20px" height="20px" viewBox="0 0 20 20" version="1.1" xmlns="http://www.w3.org/2000/svg" xmlns:xlink="http://www.w3.org/1999/xlink">
    <!-- Generator: Sketch 52 (66869) - http://www.bohemiancoding.com/sketch -->
    <title>关闭</title>
    <desc>Created with Sketch.</desc>
    <defs>
        <polygon id="path-1" points="0.00147783251 0.0195121951 19.9982759 0.0195121951 19.9982759 19.9999756 0.00147783251 19.9999756"></polygon>
    </defs>
    <g id="康复委员会后台页面3.0" stroke="none" stroke-width="1" fill="none" fill-rule="evenodd">
        <g id="用户统计-会员管理修改用户" transform="translate(-1236.000000, -130.000000)">
            <g id="分组-7" transform="translate(161.000000, 109.000000)">
                <g id="分组-2">
                    <g id="关闭" transform="translate(1075.000000, 21.000000)">
                        <g id="guanbi">
                            <g id="分组">
                                <mask id="mask-2" fill="white">
                                    <use xlink:href="#path-1"></use>
                                </mask>
                                <g id="Clip-2"></g>
                                <path d="M0,10.0098049 C0,15.5273171 4.47679803,19.9999756 9.99913793,19.9999756 C15.5216749,19.9999756 19.9982759,15.5273171 19.9982759,10.0098049 C19.9982759,4.49236585 15.5216749,0.0195121951 9.99913793,0.0195121951 C4.47679803,0.0195121951 0,4.49236585 0,10.0098049 Z" id="Fill-1" fill="#C8C8C8" mask="url(#mask-2)"></path>
                            </g>
                            <path d="M15.4879064,4.5684878 C15.7850985,4.85887805 15.7850985,5.36678049 15.4879064,5.65726829 L5.44662562,15.4536829 C5.14884236,15.7435122 4.6282266,15.7435122 4.33064039,15.4536829 C4.03344828,15.1633659 4.03344828,14.6552683 4.33064039,14.364878 L14.3718227,4.5684878 C14.6695074,4.27856098 15.1903202,4.27856098 15.4879064,4.5684878 Z" id="Fill-3" fill="#FFFFFF"></path>
                            <path d="M4.51066502,4.71853659 C4.79948276,4.43739024 5.30460591,4.43739024 5.5935468,4.71853659 L15.3364532,14.2177805 C15.6247044,14.4994146 15.6247044,14.9920732 15.3364532,15.2735122 C15.0476355,15.554561 14.5425123,15.554561 14.2534729,15.2735122 L4.51066502,5.77426829 C4.22231527,5.49256098 4.22231527,5.00007317 4.51066502,4.71853659 Z" id="Fill-4" fill="#FFFFFF"></path>
                        </g>
                    </g>
                </g>
            </g>
        </g>
    </g>
</svg>