<?xml version="1.0" encoding="UTF-8"?>
<svg width="16px" height="16px" viewBox="0 0 16 16" version="1.1" xmlns="http://www.w3.org/2000/svg" xmlns:xlink="http://www.w3.org/1999/xlink">
    <!-- Generator: Sketch 52 (66869) - http://www.bohemiancoding.com/sketch -->
    <title>xingxing -灰</title>
    <desc>Created with Sketch.</desc>
    <g id="康复委员会后台页面3.0" stroke="none" stroke-width="1" fill="none" fill-rule="evenodd">
        <g id="继续教育-在线考核题库" transform="translate(-1101.000000, -390.000000)" fill="#D8D8D8" fill-rule="nonzero">
            <g id="分组-7" transform="translate(1013.000000, 257.000000)">
                <g id="xingxing--灰" transform="translate(88.000000, 133.000000)">
                    <g id="形状">
                        <path d="M11.8984263,15.3444093 C11.6321169,15.3444093 11.3772278,15.2771547 11.1192205,15.1388258 L8.07584896,13.5441462 L8.06651401,13.538553 C8.0599659,13.5358441 8.03960049,13.530056 8.00908161,13.530056 C7.98175883,13.530056 7.93555177,13.5396443 7.90351279,13.5497588 L4.92188063,15.1346163 C4.67632643,15.275771 4.41383678,15.3444093 4.11977588,15.3444093 C3.62857004,15.3444093 3.15390987,15.1277174 2.8175201,14.7499147 C2.48824361,14.3799269 2.34821924,13.8754495 2.43326675,13.3657491 L2.4338514,13.3623386 L3.01786114,10.0130183 C3.02413642,9.95730085 3.00228989,9.89832887 2.95873325,9.85383678 L0.530552984,7.50388307 C0.0527161998,7.046743 -0.114708892,6.3752497 0.0936613886,5.75103532 C0.29791961,5.13909866 0.821846529,4.69497686 1.46096955,4.59198051 L1.46743971,4.5909866 L4.83314982,4.09590256 C4.89473325,4.08711328 4.95154202,4.04472594 4.96951035,4.01009501 L6.471581,0.950314251 C6.76123752,0.37183922 7.34462363,0.0124725944 7.99407552,0.0124725944 C8.64356638,0.0124725944 9.22699147,0.37183922 9.51664799,0.950314251 L9.51830451,0.953666261 L11.0148989,4.00233861 C11.045905,4.05624361 11.0918197,4.08687942 11.1550597,4.09590256 L11.157028,4.09619488 L14.5272594,4.59198051 C15.1623094,4.69431425 15.6856322,5.13093301 15.892989,5.73144945 L15.8945676,5.7360877 C16.1002095,6.35219488 15.9410475,7.02142753 15.4791133,7.48267966 L15.4759172,7.4858173 L13.0517125,9.86139829 L13.0449695,9.86753715 C13.0308599,9.88034105 12.9884531,9.91883069 13.0003216,10.0129988 L13.5695981,13.3490085 C13.6541583,13.8556882 13.5175445,14.3555469 13.1949135,14.7244434 C12.8822607,15.1129257 12.3986943,15.3444093 11.8984263,15.3444093 Z M8.54076492,12.7128477 L11.5688575,14.2995566 C11.6868794,14.3630305 11.7916297,14.3925944 11.8984458,14.3925944 C12.1141048,14.3925944 12.3223581,14.2920731 12.4554836,14.123732 L12.4732765,14.1025286 C12.612151,13.9465043 12.6676931,13.7350743 12.6296516,13.5071961 L12.0582509,10.1587527 L12.057335,10.1523995 C12.0035859,9.77640926 12.1270061,9.41904994 12.3961803,9.17020219 L14.8064507,6.80826309 C15.0098319,6.60419976 15.0804385,6.30996346 14.9910061,6.03932765 C14.89676,5.76917905 14.6679854,5.57980999 14.3782314,5.5321218 L11.0192643,5.03803167 C10.655084,4.9857637 10.3464263,4.77063094 10.1723167,4.44770767 L10.1640341,4.43159074 L8.66332765,1.37453837 C8.53593179,1.12144214 8.27961998,0.964306943 7.99407552,0.964306943 C7.70855055,0.964306943 7.45227771,1.12144214 7.32488185,1.37453837 L5.8224799,4.43502071 C5.6624799,4.75441657 5.33548356,4.98541291 4.96894519,5.03803167 L1.60997808,5.5321218 C1.31936663,5.5799659 1.09072838,5.77412911 0.997982948,6.0520341 C0.905861145,6.32800974 0.977851401,6.61404141 1.19054811,6.81713033 L1.19284775,6.81935201 L3.63071376,9.17873812 C3.88792205,9.43542022 4.01134227,9.7994056 3.96088672,10.15238 L3.95860658,10.1667625 L3.37325213,13.5238392 C3.33577588,13.7510548 3.39139586,13.9618611 3.52997808,14.1175542 C3.68329354,14.289754 3.90378563,14.3925749 4.11977588,14.3925749 C4.25073812,14.3925749 4.3464458,14.367922 4.45014373,14.3074884 L4.46641657,14.2984263 L7.50762485,12.6819001 L7.5316151,12.6723118 C7.58680633,12.6502314 7.78436054,12.5782412 8.00908161,12.5782412 C8.20423873,12.5782412 8.38766382,12.6247406 8.54076492,12.7128477 Z"></path>
                    </g>
                </g>
            </g>
        </g>
    </g>
</svg>