<?xml version="1.0" encoding="UTF-8"?>
<svg width="30px" height="30px" viewBox="0 0 30 30" version="1.1" xmlns="http://www.w3.org/2000/svg" xmlns:xlink="http://www.w3.org/1999/xlink">
    <!-- Generator: Sketch 52 (66869) - http://www.bohemiancoding.com/sketch -->
    <title>密码</title>
    <desc>Created with Sketch.</desc>
    <g id="后台" stroke="none" stroke-width="1" fill="none" fill-rule="evenodd">
        <g id="登录" transform="translate(-572.000000, -360.000000)">
            <g id="密码" transform="translate(572.000000, 360.000000)">
                <g>
                    <g>
                        <polygon id="Clip-2" points="0.00219512195 0.0292682927 29.9706951 0.0292682927 29.9706951 29.9999634 0.00219512195 29.9999634"></polygon>
                        <path d="M14.985439,0.0292682927 C6.70913415,0.0292682927 0,6.73840244 0,15.0147073 C0,23.2908293 6.70913415,29.9999634 14.985439,29.9999634 C23.261561,29.9999634 29.9706951,23.2908293 29.9706951,15.0147073 C29.9706951,6.73840244 23.261561,0.0292682927 14.985439,0.0292682927 Z M14.985439,28.1268293 C7.74365854,28.1268293 1.87313415,22.2563049 1.87313415,15.0147073 C1.87313415,7.77292683 7.74365854,1.90240244 14.985439,1.90240244 C22.2270366,1.90240244 28.097561,7.77292683 28.097561,15.0147073 C28.097561,22.2563049 22.2270366,28.1268293 14.985439,28.1268293 Z" id="Fill-1" fill="#009966"></path>
                        <path d="M21.5415,11.8770732 L12.259939,11.8770732 L12.259939,9.88214634 C12.2380976,8.41759756 13.3813902,7.19941463 14.8445122,7.12869512 C16.3074878,7.05793902 17.5631341,8.16007317 17.6827317,9.61993902 L19.5558659,9.61993902 C19.3988049,7.15284146 17.3157439,5.25340244 14.8446585,5.32415854 C12.3735732,5.39473171 10.4025366,7.41007317 10.3866585,9.88214634 L10.3866585,11.8770732 L8.42919512,11.8770732 C7.39467073,11.8770732 6.55606098,12.7156829 6.55606098,13.7502073 L6.55606098,20.7371707 C6.55606098,21.7716951 7.39467073,22.6103049 8.42919512,22.6103049 L21.5415,22.6103049 C22.5760244,22.6103049 23.4146341,21.7716951 23.4146341,20.7371707 L23.4146341,13.7502073 C23.4146341,12.7156829 22.5760244,11.8770732 21.5415,11.8770732 Z M8.42919512,20.7371707 L21.5415,20.7371707 L21.5415,13.7502073 L8.42919512,13.7502073 L8.42919512,20.7371707 Z" id="Fill-3" fill="#009960"></path>
                    </g>
                </g>
            </g>
        </g>
    </g>
</svg>