<?xml version="1.0" encoding="UTF-8"?>
<svg width="20px" height="20px" viewBox="0 0 20 20" version="1.1" xmlns="http://www.w3.org/2000/svg" xmlns:xlink="http://www.w3.org/1999/xlink">
    <!-- Generator: Sketch 62 (91390) - https://sketch.com -->
    <title>选中-圆</title>
    <desc>Created with Sketch.</desc>
    <defs>
        <polygon id="path-1" points="0.00146341463 0.0197804878 19.9802683 0.0197804878 19.9802683 19.9999512 0.00146341463 19.9999512"></polygon>
    </defs>
    <g id="后台1.0" stroke="none" stroke-width="1" fill="none" fill-rule="evenodd">
        <g id="积分商城-添加商品" transform="translate(-304.000000, -1043.000000)">
            <rect fill="#F7F7F7" x="0" y="0" width="1440" height="1354"></rect>
            <g id="编组" transform="translate(220.000000, 1042.000000)">
                <g id="分组-11" transform="translate(84.000000, 0.000000)">
                    <g id="选中-圆" transform="translate(0.000000, 1.000000)">
                        <g>
                            <g id="分组">
                                <mask id="mask-2" fill="white">
                                    <use xlink:href="#path-1"></use>
                                </mask>
                                <g id="Clip-2"></g>
                                <path d="M9.99029268,0.0197804878 C4.4727561,0.0197804878 0,4.49253659 0,10.0100732 C0,15.5273171 4.4727561,19.9999512 9.99029268,19.9999512 C15.5067561,19.9999512 19.9802683,15.5273171 19.9802683,10.0100732 C19.9802683,4.49253659 15.5067561,0.0197804878 9.99029268,0.0197804878 Z M9.99029268,18.0730488 C5.53697561,18.0730488 1.92712195,14.463 1.92712195,10.0099756 C1.92712195,5.5567561 5.53697561,1.94680488 9.99029268,1.94680488 C14.4432195,1.94680488 18.0532683,5.5567561 18.0532683,10.0099756 C18.0532683,14.463 14.4432195,18.0730488 9.99029268,18.0730488 Z" id="Fill-1" fill="#009966" mask="url(#mask-2)"></path>
                            </g>
                            <path d="M9.99029268,16.0616098 C6.64814634,16.0616098 3.93853659,13.3519024 3.93853659,10.0100732 C3.93853659,6.66792683 6.64814634,3.95831707 9.99029268,3.95831707 C13.3327073,3.95831707 16.0418293,6.66792683 16.0418293,10.0100732 C16.0418293,13.3519024 13.3327073,16.0616098 9.99029268,16.0616098 Z" id="Fill-3" fill="#009966"></path>
                        </g>
                    </g>
                </g>
            </g>
        </g>
    </g>
</svg>