<?xml version="1.0" encoding="UTF-8"?>
<svg width="20px" height="20px" viewBox="0 0 20 20" version="1.1" xmlns="http://www.w3.org/2000/svg" xmlns:xlink="http://www.w3.org/1999/xlink">
    <!-- Generator: Sketch 52 (66869) - http://www.bohemiancoding.com/sketch -->
    <title>分组</title>
    <desc>Created with Sketch.</desc>
    <defs>
        <polygon id="path-1" points="0.00146341463 0.0197804878 19.9802683 0.0197804878 19.9802683 19.9999512 0.00146341463 19.9999512"></polygon>
    </defs>
    <g id="康复委员会后台页面3.0" stroke="none" stroke-width="1" fill="none" fill-rule="evenodd">
        <g id="用户统计-导入会员" transform="translate(-353.000000, -194.000000)">
            <g id="分组-4" transform="translate(230.000000, 193.000000)">
                <g id="分组-11" transform="translate(123.000000, 1.000000)">
                    <g id="分组">
                        <mask id="mask-2" fill="white">
                            <use xlink:href="#path-1"></use>
                        </mask>
                        <g id="Clip-2"></g>
                        <path d="M9.99029268,0.0197804878 C4.4727561,0.0197804878 0,4.49253659 0,10.0100732 C0,15.5273171 4.4727561,19.9999512 9.99029268,19.9999512 C15.5067561,19.9999512 19.9802683,15.5273171 19.9802683,10.0100732 C19.9802683,4.49253659 15.5067561,0.0197804878 9.99029268,0.0197804878 Z M9.99029268,18.0730488 C5.53697561,18.0730488 1.92712195,14.463 1.92712195,10.0099756 C1.92712195,5.5567561 5.53697561,1.94680488 9.99029268,1.94680488 C14.4432195,1.94680488 18.0532683,5.5567561 18.0532683,10.0099756 C18.0532683,14.463 14.4432195,18.0730488 9.99029268,18.0730488 Z" id="Fill-1" fill="#C0C0C0" mask="url(#mask-2)"></path>
                    </g>
                </g>
            </g>
        </g>
    </g>
</svg>