<?xml version="1.0" encoding="UTF-8"?>
<svg width="30px" height="30px" viewBox="0 0 30 30" version="1.1" xmlns="http://www.w3.org/2000/svg" xmlns:xlink="http://www.w3.org/1999/xlink">
    <!-- Generator: Sketch 52 (66869) - http://www.bohemiancoding.com/sketch -->
    <title>账号</title>
    <desc>Created with Sketch.</desc>
    <g id="后台" stroke="none" stroke-width="1" fill="none" fill-rule="evenodd">
        <g id="登录" transform="translate(-572.000000, -290.000000)" fill="#009966">
            <g id="账号" transform="translate(572.000000, 290.000000)">
                <g>
                    <g>
                        <path d="M23.3665769,22.9121553 C23.3665769,22.8326624 23.3518859,22.7583994 23.330729,22.6856101 C22.9330745,19.7494136 20.9817433,17.2970206 18.308748,16.1665769 C19.8626149,15.1204279 20.8831379,13.3640729 20.8831379,11.3720919 C20.8831379,8.16475436 18.2387163,5.56450079 14.9773217,5.56450079 C11.7157845,5.56450079 9.07207607,8.16475436 9.07207607,11.3720919 C9.07207607,13.3646434 10.0931696,15.1217116 11.647607,16.1676704 C9.00023772,17.2884628 7.06098257,19.7066719 6.63936609,22.6068304 C6.60114105,22.7015848 6.57808241,22.8040887 6.57808241,22.9121553 L6.5862599,22.9890808 C6.5862599,23.4464976 6.96290016,23.8171949 7.42830428,23.8171949 C7.89351823,23.8171949 8.2699683,23.4464976 8.2699683,22.9890808 L8.26944532,22.9786688 L8.29022187,22.9786688 C8.68987322,19.7701902 11.4167829,17.2738193 14.7624723,17.1692235 C14.8343582,17.1716482 14.9049128,17.1796355 14.9773217,17.1796355 C15.0504913,17.1796355 15.1209033,17.1716482 15.1935024,17.1692235 C18.5397623,17.2730586 21.2666719,19.7696672 21.6665135,22.9786688 L21.6895246,22.9786688 L21.6902853,22.9890808 C21.6902853,23.4464976 22.0672583,23.8171949 22.53271,23.8171949 C22.9973534,23.8171949 23.3745642,23.4464976 23.3745642,22.9890808 L23.3665769,22.9121553 Z M14.976038,15.5223138 C12.6464025,15.5223138 10.7578288,13.6651189 10.7578288,11.3739461 C10.7578288,9.08310618 12.6464025,7.22557845 14.976038,7.22557845 C17.3056735,7.22557845 19.1944374,9.08310618 19.1944374,11.3739461 C19.1944374,13.6651189 17.3056735,15.5223138 14.976038,15.5223138 Z" id="Fill-1"></path>
                        <path d="M14.9762282,1.74618067 C22.2975594,1.74618067 28.2537242,7.55320127 28.2537242,14.6908241 C28.2537242,17.6892552 27.2330111,20.5034073 25.3019334,22.8287639 C23.4178288,25.0978764 20.7813946,26.6948653 17.8780507,27.3253883 L17.8577971,27.3298098 L17.8375911,27.3348494 C17.0165135,27.5342948 16.0537559,27.6355151 14.9764184,27.6355151 C13.899271,27.6355151 12.9367036,27.5342948 12.1152456,27.3348494 L12.0951823,27.33 L12.0749762,27.3255309 C9.17163233,26.6950555 6.53500792,25.0980666 4.65071315,22.828954 C2.7196355,20.5034073 1.69892235,17.6894453 1.69892235,14.6910143 C1.69892235,7.55320127 7.65508716,1.74618067 14.9762282,1.74618067 Z M14.9762282,0.0472583201 C6.70530903,0.0472583201 0,6.60342314 0,14.6908241 C0,21.6827258 5.01175911,27.5300158 11.7143106,28.9858479 C12.6120285,29.2038827 13.6877021,29.3344374 14.9764184,29.3344374 C16.2650872,29.3344374 17.3409509,29.2038827 18.2387163,28.9856577 C24.9410777,27.5298257 29.9528368,21.6825357 29.9528368,14.6908241 C29.9528368,6.60342314 23.2475277,0.0472583201 14.9762282,0.0472583201 Z" id="Fill-2"></path>
                    </g>
                </g>
            </g>
        </g>
    </g>
</svg>