<?xml version="1.0" encoding="UTF-8"?>
<svg width="120px" height="120px" viewBox="0 0 120 120" version="1.1" xmlns="http://www.w3.org/2000/svg" xmlns:xlink="http://www.w3.org/1999/xlink">
    <!-- Generator: Sketch 63 (92445) - https://sketch.com -->
    <title>shangchuan</title>
    <desc>Created with Sketch.</desc>
    <g id="后台1.0" stroke="none" stroke-width="1" fill="none" fill-rule="evenodd">
        <g id="模版网页-添加详情" transform="translate(-919.000000, -225.000000)">
            <g id="shangchuan" transform="translate(919.000000, 225.000000)">
                <g id="拍照上传">
                    <g id="分组">
                        <polygon id="Clip-2" points="0.00879120879 0.117073171 119.969671 0.117073171 119.969671 119.999854 0.00879120879 119.999854"></polygon>
                        <path d="M109.88674,119.999854 L10.1425641,119.999854 C4.56102564,119.999854 0,115.44439 0,109.869805 L0,10.2472683 C0,4.67253659 4.56102564,0.117073171 10.1425641,0.117073171 L109.82652,0.117073171 C115.408059,0.117073171 119.969671,4.67253659 119.969671,10.2472683 L119.969671,109.809659 C120.029158,115.44439 115.468132,119.999854 109.88674,119.999854 Z" id="Fill-1" fill="#E7E7E7"></path>
                    </g>
                    <polygon id="Fill-3" fill="#9A9A9A" points="88.701978 57.1810244 62.0552381 57.1810244 62.0552381 30.5675122 57.9739194 30.5675122 57.9739194 57.1810244 31.2676923 57.1810244 31.2676923 61.3175122 57.9739194 61.3175122 57.9739194 87.9911707 62.0552381 87.9911707 62.0552381 61.3175122 88.701978 61.3175122"></polygon>
                </g>
            </g>
        </g>
    </g>
</svg>